<svg width="101" height="95" viewBox="0 0 101 95" fill="none" xmlns="http://www.w3.org/2000/svg">
<path d="M5.16136 0.33617C2.94239 0.88687 1.68186 2.22079 0.931784 4.79072C0.765102 5.36589 0.733849 5.81869 0.733849 7.91135C0.744266 10.7138 0.973455 12.9778 1.56726 16.1107C1.66102 16.5757 1.77562 17.212 1.8277 17.518C2.08815 19.0722 2.93198 23.2697 3.23409 24.5547C3.43202 25.3624 3.7133 26.5739 3.85915 27.247C4.005 27.9201 4.17168 28.6054 4.21335 28.7767C4.26544 28.9481 4.39045 29.4131 4.48421 29.8169C5.04676 32.1788 5.72391 34.3694 6.31772 35.7767C6.80735 36.9271 7.89079 38.8239 8.63044 39.8274C9.3701 40.8309 11.3286 42.8991 12.0266 43.4253C13.3601 44.4288 15.0998 45.2121 17.0167 45.6649C17.6626 45.8239 18.1522 45.9953 18.1105 46.0442C18.0688 46.0932 17.5271 46.4358 16.9125 46.803C15.0998 47.9044 13.4434 49.3607 12.0787 51.0495C9.49511 54.2435 7.71369 57.8659 6.8386 61.7208C6.09895 64.976 6.02602 68.9656 6.63025 73.1998C7.3074 77.9603 10.1097 83.553 13.5684 87.0407C14.7144 88.2033 15.1311 88.5705 17.1417 90.2715C18.6939 91.581 19.7357 92.2051 21.8296 93.1229C23.4965 93.8572 24.3924 94.0897 26.2363 94.261C29.5908 94.5914 32.914 93.8694 35.6643 92.2296C36.9144 91.4708 37.8103 90.6509 38.9354 89.1946C41.6544 85.6946 42.7483 83.0757 44.0088 77.0547C44.2484 75.9044 44.5401 74.5582 44.6443 74.0565C44.8943 72.8939 46.082 66.6281 46.2278 65.7348C46.3945 64.6701 46.4778 54.1701 46.4153 42.9114C46.3737 34.8834 46.457 35.5687 45.3111 33.5495C44.9048 32.8397 44.1234 31.4079 43.5817 30.3676C43.0296 29.3274 42.3316 28.0792 42.0191 27.6019C39.1542 23.1351 38.6021 22.4009 35.3309 18.5582C31.6327 14.2138 29.7262 12.3292 25.9759 9.31869C22.8506 6.79771 18.5897 3.9096 16.5687 2.93058C16.3395 2.8082 15.7665 2.52673 15.2977 2.29421C14.3185 1.8047 12.2141 0.99701 11.1932 0.703303C9.15132 0.140366 6.56774 -0.0309627 5.16136 0.33617ZM6.21354 5.26799C6.72401 5.86764 6.76568 6.4061 6.33855 7.01799C5.69266 7.92359 5.40096 7.9603 4.65089 7.16484C3.96333 6.43058 3.94249 6.1124 4.56755 5.34142C4.953 4.87638 5.08843 4.79072 5.41138 4.79072C5.73433 4.79072 5.89059 4.87638 6.21354 5.26799ZM10.1931 4.97428C11.4328 5.31694 13.6205 6.2103 15.1102 6.99351C15.3394 7.11589 15.829 7.36065 16.2041 7.54421C17.6626 8.26624 19.7773 9.6124 20.0899 10.0285C20.1732 10.1386 20.2982 10.726 20.3607 11.3379C20.7879 15.1439 21.215 17.4813 21.7359 18.8397C21.9755 19.4516 22.1005 20.0879 21.9859 20.0879C21.9442 20.0879 21.2983 19.7086 20.5378 19.2558C18.8814 18.2523 17.8917 17.7627 16.3708 17.1876C14.2664 16.4044 14.0164 16.3187 12.2454 15.8904C11.1724 15.6334 11.0369 15.5722 10.9744 15.303C10.9223 15.1439 10.6098 14.018 10.2764 12.8065C9.46385 9.91834 9.35968 9.45331 9.23467 8.21729C9.10965 7.06694 9.0784 4.99876 9.193 4.87638C9.28675 4.754 9.44302 4.76624 10.1931 4.97428ZM6.82818 11.3134C7.20322 11.5337 7.55742 12.219 7.55742 12.733C7.547 13.2837 7.08863 14.0914 6.69275 14.2505C6.06769 14.4953 5.36971 14.0669 4.98426 13.1981C4.78632 12.7453 4.94259 12.1946 5.40096 11.6806C5.89059 11.1299 6.32814 11.0197 6.82818 11.3134ZM24.5695 13.504C26.2988 14.8746 27.851 16.2208 29.2262 17.5669C31.4243 19.7086 34.4038 23.233 36.3206 25.9621C38.8938 29.6211 40.1022 31.6037 41.6753 34.7121C42.6337 36.6334 43.7797 39.2645 43.6859 39.3624C43.6026 39.4603 42.1962 38.3711 40.4668 36.8659C38.9459 35.5442 37.8624 34.6264 35.6851 32.7662C32.1848 29.7925 28.5699 26.0844 27.0593 23.9061C25.9238 22.2662 24.9133 19.6107 24.3194 16.6981C23.8194 14.2505 23.6319 12.99 23.7777 12.99C23.8507 12.99 24.2049 13.2225 24.5695 13.504ZM8.47418 17.8117C9.09924 18.4725 9.16174 19.1823 8.68253 20.039C8.23457 20.81 7.92204 20.9935 7.39074 20.7977C6.93236 20.6141 6.3073 19.7453 6.3073 19.2802C6.3073 18.6316 6.86986 17.7383 7.45324 17.4813C7.71369 17.3711 8.21373 17.5302 8.47418 17.8117ZM12.9746 19.5617C16.7666 21.1648 18.5272 22.0215 20.5795 23.2942C22.6214 24.5669 23.2673 25.1054 24.7987 26.8309C25.257 27.3449 25.9863 28.1159 26.4134 28.532C26.8405 28.9481 27.4031 29.511 27.6635 29.7802L28.1323 30.282L26.9864 30.2086C26.3613 30.1718 24.8612 30.0739 23.6527 30.0128C22.4547 29.9393 20.8087 29.8292 20.0065 29.7558C19.2044 29.6946 17.423 29.6089 16.0478 29.5722C14.2456 29.5232 13.5267 29.4621 13.4747 29.3519C13.3496 29.0704 12.7871 27.3694 12.6829 26.9411C12.6308 26.7086 12.3912 25.803 12.1516 24.9341C11.7037 23.2575 11.464 21.8012 11.3599 20.0512L11.2974 18.962L11.6411 19.0477C11.8287 19.0967 12.4329 19.3292 12.9746 19.5617ZM9.47427 24.8729C10.3181 25.6561 10.2035 26.9778 9.23467 27.6998C8.94297 27.9201 8.9013 27.9201 8.52626 27.7365C7.92204 27.4428 7.34907 26.7208 7.34907 26.268C7.34907 25.8397 7.61993 25.3135 8.04705 24.9096C8.43251 24.5302 9.08882 24.518 9.47427 24.8729ZM11.2557 31.1631C11.7766 31.6404 11.8912 32.0809 11.6724 32.7662C11.1619 34.3327 10.3598 34.4673 9.68263 33.1089C9.42218 32.5949 9.41177 32.5215 9.53678 32.0442C9.75555 31.1753 10.0056 30.8572 10.4848 30.8572C10.7765 30.8572 11.0161 30.9551 11.2557 31.1631ZM17.0375 33.2435C22.0901 33.4638 24.2882 33.6107 28.1323 33.99C31.591 34.3204 31.2159 34.1981 33.3516 35.8502C34.3725 36.6456 35.831 37.747 36.5706 38.2977C38.1645 39.497 41.4461 42.1037 41.644 42.3362C41.7586 42.4708 41.0398 42.483 37.5603 42.4341C31.9869 42.3362 23.3714 42.1281 22.7047 42.067C21.3504 41.9446 18.4856 40.4393 17.3813 39.2645C16.5375 38.3711 15.4019 36.5355 15.0581 35.4953C14.7769 34.6631 14.4435 33.2068 14.5164 33.1211C14.5477 33.0844 14.7664 33.0844 14.9956 33.1089C15.2352 33.1456 16.152 33.2068 17.0375 33.2435ZM13.3809 37.0372C14.4748 37.6981 14.4956 39.2156 13.4226 39.7418C13.1309 39.8886 13.0267 39.8886 12.7454 39.7418C12.1933 39.4725 11.8912 38.9953 11.9016 38.4446C11.9224 37.9428 12.1308 37.3799 12.4016 37.0495C12.61 36.8047 12.9954 36.8047 13.3809 37.0372ZM37.9249 47.1579C37.9249 47.3047 34.9976 49.4341 33.1328 50.6456C31.8306 51.5023 27.7677 53.803 27.1947 54.0355C25.6008 54.6474 24.3194 55.0023 23.0277 55.2226C21.8296 55.4061 21.0379 55.553 20.267 55.6998C17.8292 56.1771 15.1623 56.1893 15.1623 55.7365C15.1623 54.5984 18.4439 51.1963 21.4338 49.2383C22.7464 48.3816 25.205 47.2191 26.0488 47.06C27.2051 46.8519 37.9249 46.9376 37.9249 47.1579ZM44.1547 47.9411C44.311 48.1246 43.7901 48.8956 42.5087 50.3764C41.019 52.0897 39.2376 54.4026 37.4145 56.9726C35.5809 59.5547 33.0286 62.4795 31.5285 63.7156C29.7366 65.1841 27.5802 66.3956 26.903 66.3222C26.6009 66.2855 26.5592 66.2243 26.4447 65.7348C26.1842 64.56 26.3613 62.504 26.8509 61.0844C27.2885 59.7872 28.1011 58.0862 28.4448 57.7191C28.6324 57.511 28.9657 57.2418 29.1845 57.1072C29.6845 56.8012 31.9348 55.3572 32.5598 54.9533C33.6224 54.2435 34.2683 53.8397 36.0497 52.7628C38.3 51.3921 38.425 51.3187 40.1543 50.1439C40.9148 49.6299 41.5503 49.2138 41.5815 49.2138C41.6024 49.2138 41.8211 49.067 42.0712 48.8834C42.4358 48.6142 43.8213 47.9044 44.0297 47.8799C44.0609 47.8677 44.113 47.9044 44.1547 47.9411ZM44.1755 54.3659C43.9359 55.4306 43.7588 56.483 43.5609 58.1474C43.1858 61.1089 42.9567 62.4551 42.0399 67.0198C41.9878 67.289 41.842 67.9988 41.7274 68.6107C41.6024 69.2103 41.3211 70.5075 41.0919 71.4865C40.8731 72.4656 40.4981 74.1666 40.2689 75.2802C39.8105 77.4953 39.2792 79.5145 39.0917 79.8082C38.6542 80.4813 36.5185 81.7663 34.6538 82.4883C33.9454 82.7698 33.3411 82.9778 33.3203 82.9533C33.2995 82.9166 33.3411 82.7453 33.4037 82.5495C33.4662 82.3537 33.6745 81.4236 33.862 80.4813C34.1537 78.9883 34.8205 75.9289 35.3101 73.8117C35.7685 71.7925 37.2061 66.2733 37.7166 64.5722C38.0291 63.4953 38.4771 62.1736 38.7062 61.6351C39.1021 60.6806 41.1961 57.3764 42.9671 54.9044C44.238 53.1299 44.4776 53.0198 44.1755 54.3659ZM24.0173 59.5425C24.0173 59.7016 23.9027 60.1299 23.7777 60.4848C23.3714 61.5495 23.2568 62.8222 23.3923 64.4253C23.5277 66.0285 23.6006 66.4323 24.0382 67.7907L24.3611 68.7942L23.7256 69.4795C23.1006 70.1404 21.5275 72.2575 20.5483 73.7628C19.9961 74.6316 19.2252 76.2226 19.2252 76.5285C19.2252 76.8222 19.0377 76.9201 18.8398 76.7365C18.4439 76.3327 16.3395 72.6736 15.9332 71.6701C15.2873 70.018 14.8394 67.6194 14.5893 64.3274C14.4956 63.1281 14.3914 62.0879 14.3602 62.0267C14.1935 61.7086 15.0269 61.3292 17.6105 60.5582C18.7043 60.2278 18.9023 60.1788 21.7775 59.6159C24.0382 59.1753 24.0173 59.1753 24.0173 59.5425ZM11.4224 64.6456C12.1724 65.2698 12.2662 66.4446 11.6411 67.2278C11.4328 67.497 11.2765 67.5705 10.9327 67.5705C10.5577 67.5705 10.4223 67.4848 9.9639 67.0075C9.51594 66.5425 9.4326 66.3712 9.4326 66.0285C9.4326 65.4411 9.67221 64.9393 10.141 64.5722C10.5785 64.2051 10.9327 64.2295 11.4224 64.6456ZM33.6641 66.3712C33.6224 66.5302 33.3828 67.6194 33.1224 68.7942C32.6432 70.9726 32.2785 72.5757 31.9243 74.1177C31.6847 75.1456 30.9555 78.8659 30.7992 79.8082C30.7367 80.1754 30.5909 80.9953 30.4763 81.6317C30.3617 82.268 30.2679 82.831 30.2679 82.8921C30.2679 83.2715 26.4967 82.4516 25.0695 81.754C23.7465 81.1054 21.9026 79.8572 21.2462 79.1596L20.7358 78.6212L21.3608 77.7768C21.9338 76.9935 22.3088 76.504 23.4965 74.9743C24.3194 73.9219 25.5175 72.1841 26.08 71.2295C26.5488 70.4341 26.6947 70.275 27.0697 70.1404C28.8824 69.4918 31.3618 68.1212 32.5286 67.1054C32.9869 66.7016 33.4037 66.31 33.4349 66.2365C33.5703 65.9918 33.737 66.0897 33.6641 66.3712ZM12.9329 72.1596C13.3496 72.4778 13.5997 73.0652 13.5997 73.7261C13.5997 74.4848 13.3913 74.9498 12.9225 75.2068C12.3808 75.5128 11.8912 75.3659 11.339 74.7173C10.9327 74.2278 10.8911 74.1299 10.8911 73.567C10.8911 72.1963 11.9953 71.4376 12.9329 72.1596ZM17.3188 79.2208C17.6417 79.5757 17.8709 80.2121 17.8709 80.7505C17.8709 81.0932 17.7772 81.289 17.4646 81.6561C17.1104 82.0844 17.0062 82.1334 16.5583 82.1334C15.9957 82.1334 15.4644 81.8275 15.2561 81.3869C15.0894 81.0075 15.079 79.9061 15.2457 79.5512C15.6207 78.7191 16.7146 78.5477 17.3188 79.2208ZM22.2984 84.275C23.0068 84.8991 23.1735 85.7558 22.7047 86.4166C22.1317 87.2121 21.5171 87.3467 20.892 86.8082C20.3607 86.3677 20.1628 85.9516 20.1628 85.2785C20.1628 84.018 21.3817 83.4428 22.2984 84.275ZM34.1641 85.9638C34.5288 86.2698 34.7684 86.8939 34.685 87.3834C34.6434 87.5792 34.4558 87.9463 34.2475 88.1789C33.9245 88.5582 33.8099 88.6194 33.3724 88.6194C32.9453 88.6194 32.8098 88.5582 32.4661 88.1911C32.2473 87.9586 32.0389 87.6037 32.0077 87.4201C31.9035 86.7715 32.414 85.9026 33.039 85.6946C33.4141 85.56 33.7787 85.6456 34.1641 85.9638ZM28.3823 86.6369C28.6011 86.8449 28.8199 87.1998 28.9136 87.5058C29.0595 87.9831 29.0491 88.0565 28.8616 88.4726C28.2782 89.7331 26.9343 89.7942 26.3092 88.5949C26.0279 88.0442 26.0488 87.567 26.3717 87.0652C26.9968 86.1107 27.6739 85.9638 28.3823 86.6369Z" fill="#D3B9ED"/>
<path d="M92.2947 0.262792C90.0758 0.629925 86.3462 2.00055 83.6585 3.44461C80.6061 5.08447 76.9183 7.54426 74.4597 9.60021C73.793 10.1631 72.9804 10.8117 72.6678 11.0565C70.9698 12.3415 64.0316 20.1492 61.8751 23.2086C60.5313 25.1177 59.4582 26.7331 59.0207 27.4918C58.8228 27.8222 58.5207 28.324 58.3331 28.5932C57.8852 29.2418 57.0413 30.8694 56.3329 32.4481C55.6141 34.0513 55.1037 34.9936 54.7911 35.3485C54.4994 35.6666 54.4994 35.7156 54.6453 38.5303C54.7078 39.6194 54.7703 46.3747 54.8015 53.5215C54.8432 68.1457 54.7703 66.7995 55.7183 71.3642C56.0308 72.8817 56.4163 74.7541 56.5725 75.525C57.083 78.0583 57.9789 81.6562 58.4165 82.9044C58.8228 84.0915 60.125 86.796 60.7709 87.824C62.2189 90.1369 64.8338 92.3887 67.1465 93.3188C70.4801 94.6527 74.8347 94.6771 78.2726 93.3922C79.5748 92.9027 81.7104 91.7156 83.0855 90.7121C85.5753 88.9009 86.44 88.1177 88.0339 86.2331C90.2425 83.6387 91.5551 81.5583 92.5864 79.074C93.274 77.4097 93.4928 76.6754 93.9199 74.7541C94.5033 72.0618 94.6491 70.7523 94.6491 68.1579C94.6491 63.3485 93.9303 59.9586 92.1072 56.2261C90.3258 52.5303 86.6796 48.3694 83.6377 46.5215C83.273 46.3013 82.9813 46.081 82.9813 46.0198C82.9813 45.9586 83.0022 45.9097 83.0334 45.9097C83.0543 45.9097 83.7418 45.7138 84.5544 45.4691C86.7838 44.8083 88.5756 43.8415 90.1279 42.4708C91.9405 40.8799 93.5344 38.5303 94.6491 35.8135C95.6701 33.3537 96.7952 29.2418 97.5661 25.2278C97.9515 23.2331 98.5037 20.7366 98.8683 19.4149C99.0141 18.8764 99.2329 17.9708 99.3475 17.3957C99.4621 16.8205 99.7434 15.4866 99.9621 14.4341C100.66 11.1422 100.743 10.3834 100.733 7.72783C100.723 4.24007 100.462 3.29776 99.1496 2.02503C98.3787 1.27853 97.514 0.740065 96.566 0.434121C95.8576 0.201603 93.2844 0.103701 92.2947 0.262792ZM92.4093 5.85545C92.326 6.9079 92.0343 8.79251 91.7322 10.1142C91.3363 11.8887 90.4612 15.2663 90.3258 15.4988C90.2216 15.6946 89.9924 15.7803 89.2736 15.9027C88.7631 15.9883 87.9297 16.1964 87.4088 16.3677C86.4817 16.6614 86.2004 16.7593 84.6482 17.2733C83.9293 17.5058 83.2939 17.7873 81.2103 18.7663C80.7832 18.9743 80.0852 19.3537 79.6685 19.6229C79.2518 19.8922 78.8872 20.088 78.8664 20.0635C78.8351 20.0268 78.9393 19.6596 79.0851 19.2313C79.5435 17.8974 80.3665 13.6999 80.6895 11.032C80.7624 10.4568 80.8353 9.93063 80.8561 9.84496C80.9082 9.62468 84.4919 7.59321 86.2317 6.79776C88.6069 5.7086 90.7321 5.04776 92.2426 4.92538C92.4823 4.91314 92.4823 4.91314 92.4093 5.85545ZM96.7431 5.1579C97.0139 5.32923 97.2535 5.91664 97.2535 6.41839C97.2535 6.71209 97.1598 6.94461 96.8993 7.27503C96.4618 7.85021 96.0972 7.86244 95.5034 7.3607C94.7325 6.71209 94.67 6.21035 95.2638 5.51279C95.6076 5.10895 95.7326 5.03552 96.0972 5.03552C96.3368 5.03552 96.6285 5.09671 96.7431 5.1579ZM95.6701 11.5338C96.5243 12.317 96.5139 13.4551 95.6596 14.0792C95.1179 14.4708 94.7533 14.4096 94.2533 13.8589C93.5657 13.088 93.5657 12.6229 94.2324 11.7173C94.5137 11.3502 94.6387 11.2768 94.9825 11.2768C95.2429 11.2768 95.5034 11.3747 95.6701 11.5338ZM77.1787 13.0513C77.1579 13.3572 76.5849 16.5513 76.4182 17.2855C76.0432 18.9131 75.366 20.9936 74.7722 22.2663C74.2305 23.4534 73.6679 24.2243 71.8969 26.1946C68.3653 30.1352 67.6465 30.845 64.4587 33.5495C63.8649 34.0513 63.0628 34.7366 62.6877 35.0548C62.3023 35.3729 61.6772 35.8747 61.3022 36.1684C60.9271 36.4621 60.25 37.0128 59.8124 37.3922C58.5832 38.4691 57.3435 39.4481 57.2914 39.3869C57.208 39.3013 59.0832 35.2138 60.0104 33.4883C62.521 28.7645 64.7921 25.5215 68.9696 20.6387C71.324 17.8852 73.1054 16.0373 74.6472 14.7401C75.3035 14.1894 76.0536 13.5163 76.314 13.2471C76.8141 12.7086 77.21 12.6229 77.1787 13.0513ZM94.2949 18.1422C94.6491 18.546 94.8992 19.317 94.795 19.6719C94.6595 20.1002 94.2116 20.7121 93.9511 20.8345C93.5553 21.0058 93.0656 20.7733 92.6281 20.1981C92.1489 19.574 92.1072 18.8397 92.5239 18.2645C93.024 17.567 93.7428 17.518 94.2949 18.1422ZM89.5653 19.8432C89.5341 20.3572 89.1173 22.9271 88.8152 24.4324C88.586 25.6072 88.2318 27.0145 87.7735 28.5932L87.4818 29.5722L83.7522 29.6579C80.0436 29.7313 76.5536 29.9149 74.8556 30.1352C73.72 30.2698 72.8762 30.2698 72.8762 30.1352C72.8762 30.074 72.9179 30.0006 72.97 29.9761C73.0846 29.9271 74.5847 28.4219 76.0432 26.8799C77.3975 25.4481 77.71 25.1789 78.9705 24.2855C80.5124 23.1964 82.523 22.046 84.2835 21.2506C85.8566 20.5408 89.1486 19.3537 89.4403 19.4027C89.5549 19.4149 89.5861 19.5495 89.5653 19.8432ZM92.9823 24.8117C93.5553 25.3869 93.7532 26.1457 93.4823 26.7331C93.2636 27.1736 92.951 27.5652 92.6385 27.7488C92.3885 27.9079 92.3156 27.9079 91.9822 27.7243C91.5447 27.4796 90.9092 26.525 90.8988 26.109C90.8988 25.595 91.3988 24.7628 91.8364 24.5792C92.2218 24.4201 92.6698 24.5058 92.9823 24.8117ZM91.3884 31.1264C91.7009 31.4569 91.8884 32.4114 91.7322 32.8764C91.4613 33.7086 90.7946 34.1002 90.2112 33.7698C89.7737 33.525 89.4403 32.8764 89.4403 32.2523C89.4403 31.8117 89.5028 31.6527 89.8049 31.2978C90.305 30.7104 90.93 30.6369 91.3884 31.1264ZM86.6275 33.3415C86.6275 33.6474 86.0129 35.3607 85.4191 36.6701C84.919 37.7715 84.6586 38.1999 83.9606 39.0076C83.2522 39.8397 82.9293 40.0967 82.0333 40.6229C80.8249 41.3083 80.0019 41.6632 79.0747 41.8834C78.3142 42.0548 73.7721 42.2138 67.1986 42.2995C64.5108 42.324 61.6355 42.3852 60.823 42.4097C60 42.4464 59.3332 42.4586 59.3332 42.4341C59.3332 42.2383 66.5423 36.4866 67.6674 35.7768C69.4696 34.6387 69.8551 34.4673 71.001 34.296C74.5847 33.7453 78.0121 33.4638 82.9293 33.317C84.8253 33.268 86.4296 33.2069 86.5025 33.2069C86.565 33.1946 86.6275 33.2558 86.6275 33.3415ZM89.1903 37.1474C89.6278 37.6614 89.6695 38.31 89.3153 38.9341C89.0028 39.4848 88.2423 39.9499 87.8256 39.852C87.4714 39.7785 86.9609 39.2401 86.8775 38.8607C86.8046 38.5058 87.138 37.7593 87.6276 37.1841C88.1589 36.56 88.6798 36.5478 89.1903 37.1474ZM71.7407 47.0111C73.3658 47.0845 74.9285 47.1946 75.2202 47.268C75.5015 47.3292 76.1369 47.6229 76.6266 47.9166C77.1162 48.2104 77.9704 48.6876 78.5434 48.9691C79.8456 49.6422 81.9292 51.2576 83.6272 52.9341C85.0649 54.3415 85.5233 54.9289 85.7004 55.553C85.9087 56.2995 85.4712 56.4708 83.9814 56.1894C83.6272 56.1282 82.6896 55.9936 81.8875 55.8834C78.8039 55.4918 75.939 54.8799 74.2826 54.268C73.4804 53.9866 71.4594 52.8729 69.6988 51.7593C67.4486 50.3275 63.0836 47.1824 63.0836 46.9743C63.0836 46.852 68.3028 46.8642 71.7407 47.0111ZM59.5728 49.7278C60.5104 50.1684 64.3129 52.3834 64.5942 52.6404C64.6567 52.6894 65.7088 53.338 66.9381 54.0845C71.0219 56.532 71.9907 57.1439 72.3553 57.5111C72.7512 57.8904 73.8763 60.2034 74.2305 61.3292C74.543 62.3327 74.7514 63.581 74.7514 64.4376C74.7514 65.2208 74.5743 66.4691 74.4701 66.4691C74.4388 66.4691 73.5429 65.9673 72.4803 65.3432C68.4383 62.9936 66.9798 61.5495 62.5523 55.5163C61.6564 54.3048 60.6563 52.8729 60.3229 52.3345C59.9791 51.796 59.2811 50.8782 58.7603 50.2908L57.8227 49.2261L58.1665 49.2138C58.354 49.2138 58.9894 49.4464 59.5728 49.7278ZM57.281 53.8275C58.4581 55.3083 60.823 58.845 61.6564 60.3747C62.5315 62.0023 62.7711 62.7366 64.0837 67.8153C64.4587 69.2593 64.8858 70.8869 65.0213 71.4254C65.1567 71.9639 65.4901 73.3712 65.7505 74.546C66.6152 78.4621 67.0631 80.4813 67.1465 80.9097C67.1986 81.1422 67.3236 81.6806 67.4173 82.0967C67.5215 82.5128 67.5736 82.8922 67.5424 82.9289C67.4903 83.0023 66.8548 82.7943 65.4276 82.2313C64.6254 81.9254 63.6566 81.3747 63.0003 80.8729C62.719 80.6649 62.3335 80.3834 62.1564 80.2733C61.7501 80.0163 61.6043 79.6247 61.1251 77.5443C60.9271 76.6632 60.6979 75.6719 60.6146 75.3415C59.8124 72.0373 58.604 65.796 57.8331 60.9009C57.6768 59.9586 57.5101 58.9673 57.4581 58.6981C57.2914 57.8537 57.1559 56.8869 57.083 56.067C57.0518 55.6264 56.9372 54.8677 56.8226 54.3782C56.7184 53.8887 56.6246 53.4359 56.6246 53.3747C56.6246 53.1299 56.833 53.2645 57.281 53.8275ZM79.2831 59.5425C80.3665 59.8974 81.9187 60.4114 82.7209 60.6562C84.1898 61.1212 85.367 61.574 85.9608 61.8922C86.4921 62.1736 86.5546 62.3205 86.4296 63.1159C86.3671 63.5076 86.315 64.4988 86.315 65.3187C86.315 67.0076 86.19 67.8642 85.6274 69.8957C85.2107 71.4376 84.8878 72.2576 84.1169 73.7628C83.6168 74.7418 82.6063 76.1369 82.4084 76.1369C82.3459 76.1369 82.1896 75.9289 82.0437 75.6964C80.804 73.6037 79.5539 71.7925 78.1059 69.9936C77.5746 69.3327 77.1474 68.782 77.1474 68.7576C77.1474 68.7208 77.2725 68.268 77.4183 67.7418C77.7829 66.3957 77.9079 65.0128 77.8558 62.7733C77.8038 60.8764 77.7933 60.8397 77.4183 59.9097C77.21 59.3957 77.0433 58.9551 77.0433 58.9306C77.0433 58.8205 77.3871 58.9184 79.2831 59.5425ZM90.5862 64.5722C91.3884 65.0618 91.5551 66.0775 90.9717 66.9708C90.5446 67.6439 90.0028 67.9132 89.5861 67.6684C89.2215 67.4726 88.8569 66.8607 88.7736 66.2855C88.6798 65.7104 88.9507 65.0373 89.4299 64.6701C89.8362 64.3397 90.1695 64.3153 90.5862 64.5722ZM68.1362 66.5915C68.4695 66.8974 68.8862 67.2646 69.0633 67.4236C69.4592 67.7663 72.3345 69.4796 73.345 69.9569C74.0117 70.2873 74.2201 70.4831 75.8557 72.3922C77.1683 73.9341 77.9704 75.0111 78.8976 76.4674C79.6685 77.6667 80.1373 78.5233 80.1061 78.6334C80.0748 78.7313 79.7831 79.074 79.4706 79.4044C77.3766 81.5338 75.8452 82.3292 72.9387 82.8065C71.449 83.0513 70.9385 83.0513 70.8552 82.7943C70.8239 82.6964 70.626 81.7663 70.428 80.7506C70.0843 78.9516 69.0946 74.3502 68.5424 71.9761C68.3966 71.3397 68.0737 69.859 67.8132 68.6841C67.5528 67.5215 67.3027 66.4569 67.2507 66.3345C67.1882 66.2121 67.1465 66.0285 67.1465 65.9062C67.1465 65.6736 67.1152 65.6614 68.1362 66.5915ZM89.5445 72.0373C90.4091 72.5635 90.3675 74.4114 89.4924 75.0845C89.357 75.1946 89.034 75.2803 88.784 75.2803C88.0652 75.2803 87.5651 74.5093 87.5651 73.4079C87.5651 72.2453 88.6486 71.4988 89.5445 72.0373ZM85.3774 78.7681C85.7733 79.0128 86.1066 79.5268 86.1066 79.9184C86.1066 80.5058 85.8983 81.1055 85.5753 81.4971C85.2941 81.8275 85.1795 81.8887 84.7419 81.8887C84.3044 81.8887 84.1898 81.8275 83.9293 81.5093C83.2626 80.6894 83.273 79.6859 83.971 78.9639C84.3877 78.5355 84.8774 78.4621 85.3774 78.7681ZM80.3144 83.7733C81.0749 84.1404 81.3458 85.2296 80.9082 86.1719C80.6999 86.6369 80.054 87.1509 79.6685 87.1509C79.0851 87.1509 78.2934 86.282 78.2934 85.6334C78.2934 84.8135 79.1685 83.6142 79.7831 83.602C79.8873 83.602 80.1165 83.6754 80.3144 83.7733ZM68.3966 85.9271C68.7821 86.2453 69.1258 86.9062 69.1258 87.3222C69.1258 88.0688 68.5112 88.8642 67.9382 88.8642C67.7507 88.8642 67.3965 88.7051 67.1361 88.5093C66.3027 87.8974 66.1256 86.9062 66.7194 86.2576C67.2402 85.6824 67.9382 85.5478 68.3966 85.9271ZM74.4909 86.5757C74.7514 86.7471 74.9806 87.0285 75.1056 87.3222C75.2827 87.7628 75.2931 87.8485 75.1577 88.289C74.9493 88.9988 74.3347 89.5373 73.7617 89.5373C73.3867 89.5373 73.2408 89.4639 72.9283 89.109C72.4178 88.5215 72.272 87.9341 72.5116 87.3467C72.7304 86.8083 73.3242 86.3065 73.7617 86.3065C73.9388 86.3065 74.2617 86.4167 74.4909 86.5757Z" fill="#D3B9ED"/>
<path d="M36.6748 3.99529C36.6227 4.01976 36.3831 4.10543 36.1435 4.16662C35.6226 4.32571 34.81 5.1334 34.5392 5.782C34.2579 6.40613 34.2579 7.75228 34.5288 8.48655C34.7684 9.15963 35.1955 9.74704 35.7268 10.1509C36.1018 10.4446 36.2581 10.4813 36.9978 10.4691C37.7062 10.4691 37.9145 10.4079 38.3416 10.1386L38.8417 9.80823L39.5813 10.518C39.9876 10.9096 40.6023 11.4726 40.946 11.7663C41.7482 12.4393 42.467 13.247 43.54 14.7033C44.7172 16.282 45.4882 17.6526 46.1966 19.4149C46.832 20.9691 47.0821 21.3974 47.2904 21.2138C47.5404 20.9691 48.9468 20.4551 49.3427 20.4551C49.8219 20.4551 49.8427 20.3817 49.551 19.2925C48.6135 15.7068 46.7487 12.6596 43.5505 9.51452C41.9357 7.93585 41.6753 7.70333 40.7585 7.11592C40.0397 6.65088 39.4355 6.01452 39.4355 5.69634C39.4355 5.41487 38.7583 4.65613 38.2583 4.37466C37.7478 4.08095 36.904 3.87291 36.6748 3.99529Z" fill="#D3B9ED"/>
<path d="M63.1461 4.10536C62.5835 4.3134 61.9689 4.962 61.698 5.62284C61.5001 6.11235 61.3647 6.24697 60.6875 6.66305C59.0832 7.6176 56.5517 10.1998 55.0203 12.427C53.2701 14.9725 51.5825 18.4358 51.27 20.1124C51.2074 20.4183 51.2283 20.4305 52.0096 20.6386C52.4471 20.761 53.0826 20.9935 53.416 21.1648C53.7494 21.3239 54.0411 21.4463 54.0515 21.4218C54.0619 21.3973 54.4265 20.5529 54.8536 19.5372C55.9787 16.9061 56.9684 15.205 58.4373 13.3816C59.5937 11.9498 61.7397 10.0529 62.1981 10.0529C62.3023 10.0529 62.6044 10.1753 62.8648 10.3221C63.8858 10.8973 65.2817 10.5424 66.1151 9.47774C66.6569 8.78019 66.9277 8.05816 67.0006 7.09138C67.0631 6.3204 67.0631 6.3204 66.5839 5.56165C66.3235 5.14557 65.9276 4.6683 65.7193 4.50921C64.9379 3.94627 63.9899 3.79942 63.1461 4.10536Z" fill="#D3B9ED"/>
<path d="M48.9468 22.8782C47.5717 23.4778 46.9883 24.1631 46.4466 25.7663C45.9674 27.2226 46.1445 28.4953 47.0716 30.074L47.4988 30.8205L49.0197 30.8082C49.8531 30.8082 51.0929 30.8449 51.7804 30.9061L53.0305 31.004L53.7598 30.3432C54.7807 29.4131 55.0099 28.8502 55.0099 27.3082C55.0099 26.3292 54.9682 26.06 54.7599 25.5949C54.364 24.7016 54.0515 24.2855 53.3327 23.6858C51.9054 22.4865 50.4365 22.2173 48.9468 22.8782Z" fill="#D3B9ED"/>
<path d="M49.3323 33.0722C49.2489 33.1334 49.051 33.2313 48.8843 33.3047C48.728 33.3659 48.5509 33.574 48.4884 33.7575C48.4051 34.0023 48.3947 38.4079 48.4468 48.8467C48.478 56.9603 48.4676 67.8764 48.4155 73.1142C48.353 78.9761 48.353 82.8187 48.4051 83.088C48.676 84.3362 49.624 85.4376 50.4261 85.4376C51.1554 85.4376 52.1034 84.4464 52.4055 83.345C52.6243 82.5862 52.6243 82.5617 52.5826 55.1859C52.5409 34.6754 52.5305 33.9289 52.343 33.6964C52.0096 33.268 51.072 32.9376 50.2386 32.9498C49.8219 32.9498 49.4156 32.9988 49.3323 33.0722Z" fill="#D3B9ED"/>
</svg>
